<?xml version="1.0" standalone="no"?><!DOCTYPE svg PUBLIC "-//W3C//DTD SVG 1.1//EN" "http://www.w3.org/Graphics/SVG/1.1/DTD/svg11.dtd"><svg t="1606075126601" class="icon" viewBox="0 0 1026 1024" version="1.1" xmlns="http://www.w3.org/2000/svg" p-id="3559" xmlns:xlink="http://www.w3.org/1999/xlink" width="200.390625" height="200"><defs><style type="text/css"></style></defs><path d="M1023.75737 512.121315v409.502948c0 56.306655-46.069082 102.375737-102.375737 102.375737H102.375737c-56.306655 0-102.375737-46.069082-102.375737-102.375737V102.618367C0 46.311712 46.069082 0.24263 102.375737 0.24263h358.315079c30.712721 0 51.187868 20.475147 51.187869 51.187869s-20.475147 51.187868-51.187869 51.187868H153.563605c-30.712721 0-51.187868 20.475147-51.187868 51.187869v716.630159c0 30.712721 20.475147 51.187868 51.187868 51.187868h716.630159c30.712721 0 51.187868-20.475147 51.187869-51.187868v-358.31508c0-30.712721 20.475147-51.187868 51.187868-51.187868s51.187868 20.475147 51.187869 51.187868z" p-id="3560" fill="#ffffff"></path><path d="M1013.519796 10.480204c20.475147 25.593934 15.356361 61.425442-10.237574 81.90059l-563.066553 563.066553c-15.356361 25.593934-46.069082 35.831508-71.663016 20.475147-25.593934-15.356361-35.831508-46.069082-20.475147-71.663015 5.118787-5.118787 10.237574-15.356361 20.475147-20.475148L926.500419 20.717778c20.475147-25.593934 61.425442-25.593934 87.019377-10.237574z" p-id="3561" fill="#ffffff"></path></svg>