<?xml version="1.0" standalone="no"?><!DOCTYPE svg PUBLIC "-//W3C//DTD SVG 1.1//EN" "http://www.w3.org/Graphics/SVG/1.1/DTD/svg11.dtd"><svg t="1606033787602" class="icon" viewBox="0 0 1024 1024" version="1.1" xmlns="http://www.w3.org/2000/svg" p-id="2461" xmlns:xlink="http://www.w3.org/1999/xlink" width="200" height="200"><defs><style type="text/css"></style></defs><path d="M905.8 128.4c-1.4-0.2-3-0.4-4.4-0.4H123c-14.8-0.2-26.8 11.8-27 27 0 1.6 0 3.2 0.4 4.8l113.2 705c1.4 8.6 5.8 16.4 12.2 22.2 6.4 5.8 14.8 9 23.4 9H788c13.2 0.2 24.6-9.6 26.6-23L882 448H632l-32 192h-176l-44.6-253.8h512.4l36-226.2c2.2-15-7.6-29.2-22-31.6z" p-id="2462" data-spm-anchor-id="a313x.7781069.0.i0" class="selected" fill="#2684FF"></path></svg>